<?xml version="1.0" encoding="UTF-8" standalone="no"?>
<!DOCTYPE svg PUBLIC "-//W3C//DTD SVG 1.1//EN"
 "http://www.w3.org/Graphics/SVG/1.1/DTD/svg11.dtd">
<!-- Generated by graphviz version 2.40.1 (20161225.0304)
 -->
<!-- Title: ast Pages: 1 -->
<svg width="1278pt" height="908pt"
 viewBox="0.00 0.00 1278.09 908.00" xmlns="http://www.w3.org/2000/svg" xmlns:xlink="http://www.w3.org/1999/xlink">
<g id="graph0" class="graph" transform="scale(1 1) rotate(0) translate(4 904)">
<title>ast</title>
<polygon fill="#ffffff" stroke="transparent" points="-4,4 -4,-904 1274.0934,-904 1274.0934,4 -4,4"/>
<!-- block -->
<g id="node1" class="node">
<title>block</title>
<ellipse fill="none" stroke="#000000" cx="786.0467" cy="-162" rx="36.2938" ry="18"/>
<text text-anchor="middle" x="786.0467" y="-158.3" font-family="Times,serif" font-size="14.00" fill="#000000">block</text>
</g>
<!-- program -->
<g id="node2" class="node">
<title>program</title>
<ellipse fill="none" stroke="#000000" cx="695.0467" cy="-90" rx="50.8918" ry="18"/>
<text text-anchor="middle" x="695.0467" y="-86.3" font-family="Times,serif" font-size="14.00" fill="#000000">program</text>
</g>
<!-- block&#45;&#45;program -->
<g id="edge1" class="edge">
<title>block&#45;&#45;program</title>
<path fill="none" stroke="#000000" d="M766.748,-146.7307C751.8267,-134.9248 731.2025,-118.6068 715.9025,-106.5013"/>
</g>
<!-- block_stmt -->
<g id="node3" class="node">
<title>block_stmt</title>
<ellipse fill="none" stroke="#000000" cx="864.0467" cy="-90" rx="62.2891" ry="18"/>
<text text-anchor="middle" x="864.0467" y="-86.3" font-family="Times,serif" font-size="14.00" fill="#000000">block_stmt</text>
</g>
<!-- block&#45;&#45;block_stmt -->
<g id="edge2" class="edge">
<title>block&#45;&#45;block_stmt</title>
<path fill="none" stroke="#000000" d="M798.6917,-144.937C809.989,-133.3765 826.472,-118.1737 840.1636,-106.6921"/>
</g>
<!-- block&#45;&#45;block_stmt -->
<g id="edge3" class="edge">
<title>block&#45;&#45;block_stmt</title>
<path fill="none" stroke="#000000" d="M807.8011,-147.0816C821.6367,-135.6308 838.9058,-119.7863 850.7822,-107.6953"/>
</g>
<!-- if_stmt -->
<g id="node14" class="node">
<title>if_stmt</title>
<ellipse fill="none" stroke="#000000" cx="880.0467" cy="-18" rx="43.5923" ry="18"/>
<text text-anchor="middle" x="880.0467" y="-14.3" font-family="Times,serif" font-size="14.00" fill="#000000">if_stmt</text>
</g>
<!-- block_stmt&#45;&#45;if_stmt -->
<g id="edge66" class="edge">
<title>block_stmt&#45;&#45;if_stmt</title>
<path fill="none" stroke="#000000" d="M868.0842,-71.8314C870.4912,-61 873.5384,-47.2876 875.9549,-36.4133"/>
</g>
<!-- while_stmt -->
<g id="node15" class="node">
<title>while_stmt</title>
<ellipse fill="none" stroke="#000000" cx="757.0467" cy="-18" rx="61.99" ry="18"/>
<text text-anchor="middle" x="757.0467" y="-14.3" font-family="Times,serif" font-size="14.00" fill="#000000">while_stmt</text>
</g>
<!-- block_stmt&#45;&#45;while_stmt -->
<g id="edge67" class="edge">
<title>block_stmt&#45;&#45;while_stmt</title>
<path fill="none" stroke="#000000" d="M839.2298,-73.3008C821.9437,-61.669 798.9856,-46.2206 781.729,-34.6087"/>
</g>
<!-- expr_stmt -->
<g id="node4" class="node">
<title>expr_stmt</title>
<ellipse fill="none" stroke="#000000" cx="736.0467" cy="-306" rx="57.6901" ry="18"/>
<text text-anchor="middle" x="736.0467" y="-302.3" font-family="Times,serif" font-size="14.00" fill="#000000">expr_stmt</text>
</g>
<!-- expr_stmt&#45;&#45;block -->
<g id="edge4" class="edge">
<title>expr_stmt&#45;&#45;block</title>
<path fill="none" stroke="#000000" d="M733.0329,-287.7623C737.1692,-259.6092 755.8942,-205.977 771.1918,-178.7519"/>
</g>
<!-- expr_stmt&#45;&#45;block -->
<g id="edge5" class="edge">
<title>expr_stmt&#45;&#45;block</title>
<path fill="none" stroke="#000000" d="M742.2782,-288.0535C751.8595,-260.4592 770.1083,-207.9026 779.7367,-180.1727"/>
</g>
<!-- expr_stmt&#45;&#45;block -->
<g id="edge6" class="edge">
<title>expr_stmt&#45;&#45;block</title>
<path fill="none" stroke="#000000" d="M751.2469,-288.6302C766.4612,-261.252 784.9105,-208.3078 789.0455,-180.3394"/>
</g>
<!-- do_stmt -->
<g id="node5" class="node">
<title>do_stmt</title>
<ellipse fill="none" stroke="#000000" cx="692.0467" cy="-234" rx="48.1917" ry="18"/>
<text text-anchor="middle" x="692.0467" y="-230.3" font-family="Times,serif" font-size="14.00" fill="#000000">do_stmt</text>
</g>
<!-- expr_stmt&#45;&#45;do_stmt -->
<g id="edge7" class="edge">
<title>expr_stmt&#45;&#45;do_stmt</title>
<path fill="none" stroke="#000000" d="M725.1703,-288.2022C718.3501,-277.0419 709.5944,-262.7143 702.798,-251.593"/>
</g>
<!-- do_stmt&#45;&#45;block -->
<g id="edge75" class="edge">
<title>do_stmt&#45;&#45;block</title>
<path fill="none" stroke="#000000" d="M713.3768,-217.6621C729.1938,-205.5469 750.6059,-189.1462 766.0866,-177.2886"/>
</g>
<!-- = -->
<g id="node6" class="node">
<title>=</title>
<ellipse fill="none" stroke="#000000" cx="736.0467" cy="-378" rx="27" ry="18"/>
<text text-anchor="middle" x="736.0467" y="-374.3" font-family="Times,serif" font-size="14.00" fill="#000000">=</text>
</g>
<!-- =&#45;&#45;expr_stmt -->
<g id="edge8" class="edge">
<title>=&#45;&#45;expr_stmt</title>
<path fill="none" stroke="#000000" d="M719.4008,-363.4297C714.9405,-351.8421 714.6202,-335.597 718.4396,-323.3403"/>
</g>
<!-- =&#45;&#45;expr_stmt -->
<g id="edge9" class="edge">
<title>=&#45;&#45;expr_stmt</title>
<path fill="none" stroke="#000000" d="M730.131,-360.2022C729.0285,-349.2085 729.0187,-335.1413 730.1017,-324.0931"/>
</g>
<!-- =&#45;&#45;expr_stmt -->
<g id="edge10" class="edge">
<title>=&#45;&#45;expr_stmt</title>
<path fill="none" stroke="#000000" d="M741.9624,-360.2022C743.065,-349.2085 743.0747,-335.1413 741.9917,-324.0931"/>
</g>
<!-- =&#45;&#45;expr_stmt -->
<g id="edge11" class="edge">
<title>=&#45;&#45;expr_stmt</title>
<path fill="none" stroke="#000000" d="M752.6926,-363.4297C757.1529,-351.8421 757.4733,-335.597 753.6538,-323.3403"/>
</g>
<!-- add -->
<g id="node7" class="node">
<title>add</title>
<ellipse fill="none" stroke="#000000" cx="635.0467" cy="-594" rx="27.8951" ry="18"/>
<text text-anchor="middle" x="635.0467" y="-590.3" font-family="Times,serif" font-size="14.00" fill="#000000">add</text>
</g>
<!-- add&#45;&#45;= -->
<g id="edge12" class="edge">
<title>add&#45;&#45;=</title>
<path fill="none" stroke="#000000" d="M631.651,-575.6987C638.8818,-565.9536 650.3492,-553.2596 658.0467,-540 687.0616,-490.0193 701.5427,-421.6101 718.8544,-392.2888"/>
</g>
<!-- add&#45;&#45;= -->
<g id="edge13" class="edge">
<title>add&#45;&#45;=</title>
<path fill="none" stroke="#000000" d="M646.453,-577.1381C655.7256,-567.2216 667.9643,-553.9226 676.0467,-540 704.0253,-491.8043 718.4898,-426.473 727.7663,-395.5774"/>
</g>
<!-- add&#45;&#45;= -->
<g id="edge14" class="edge">
<title>add&#45;&#45;=</title>
<path fill="none" stroke="#000000" d="M656.427,-582.0084C669.3251,-571.8466 684.5531,-556.3535 694.0467,-540 721.8773,-492.0593 736.3364,-427.1638 738.4896,-396.0706"/>
</g>
<!-- add&#45;&#45;= -->
<g id="edge15" class="edge">
<title>add&#45;&#45;=</title>
<path fill="none" stroke="#000000" d="M661.2247,-587.3341C681.1371,-577.8852 700.6929,-559.558 712.0467,-540 740.4694,-491.0393 754.9456,-424.3947 749.0166,-394.1324"/>
</g>
<!-- rel -->
<g id="node8" class="node">
<title>rel</title>
<ellipse fill="none" stroke="#000000" cx="635.0467" cy="-450" rx="27" ry="18"/>
<text text-anchor="middle" x="635.0467" y="-446.3" font-family="Times,serif" font-size="14.00" fill="#000000">rel</text>
</g>
<!-- add&#45;&#45;rel -->
<g id="edge16" class="edge">
<title>add&#45;&#45;rel</title>
<path fill="none" stroke="#000000" d="M618.0728,-579.6663C604.6953,-552.0644 604.7047,-491.8319 618.101,-464.2758"/>
</g>
<!-- add&#45;&#45;rel -->
<g id="edge17" class="edge">
<title>add&#45;&#45;rel</title>
<path fill="none" stroke="#000000" d="M625.9377,-576.9158C620.0815,-549.2018 620.0831,-494.7617 625.9424,-467.0619"/>
</g>
<!-- add&#45;&#45;rel -->
<g id="edge18" class="edge">
<title>add&#45;&#45;rel</title>
<path fill="none" stroke="#000000" d="M635.0467,-575.7623C635.0467,-548.0633 635.0467,-495.7005 635.0467,-468.0896"/>
</g>
<!-- add&#45;&#45;rel -->
<g id="edge19" class="edge">
<title>add&#45;&#45;rel</title>
<path fill="none" stroke="#000000" d="M644.1558,-576.9158C650.0119,-549.2018 650.0104,-494.7617 644.1511,-467.0619"/>
</g>
<!-- add&#45;&#45;rel -->
<g id="edge20" class="edge">
<title>add&#45;&#45;rel</title>
<path fill="none" stroke="#000000" d="M652.0206,-579.6663C665.3981,-552.0644 665.3887,-491.8319 651.9925,-464.2758"/>
</g>
<!-- &lt; -->
<g id="node9" class="node">
<title>&lt;</title>
<ellipse fill="none" stroke="#000000" cx="544.0467" cy="-522" rx="27" ry="18"/>
<text text-anchor="middle" x="544.0467" y="-518.3" font-family="Times,serif" font-size="14.00" fill="#000000">&lt;</text>
</g>
<!-- add&#45;&#45;&lt; -->
<g id="edge21" class="edge">
<title>add&#45;&#45;&lt;</title>
<path fill="none" stroke="#000000" d="M614.3928,-581.7862C597.0973,-569.5894 573.198,-550.7993 558.0251,-537.5454"/>
</g>
<!-- add&#45;&#45;&lt; -->
<g id="edge22" class="edge">
<title>add&#45;&#45;&lt;</title>
<path fill="none" stroke="#000000" d="M620.9795,-578.3771C605.7244,-565.0595 581.7177,-546.1945 564.4356,-534.0271"/>
</g>
<!-- rel&#45;&#45;do_stmt -->
<g id="edge57" class="edge">
<title>rel&#45;&#45;do_stmt</title>
<path fill="none" stroke="#000000" d="M637.6852,-431.7238C642.3268,-401.4033 653.0074,-338.989 669.0467,-288 672.8994,-275.7523 678.5313,-262.4795 683.2577,-252.1577"/>
</g>
<!-- rel&#45;&#45;= -->
<g id="edge51" class="edge">
<title>rel&#45;&#45;=</title>
<path fill="none" stroke="#000000" d="M641.8613,-432.5708C658.0594,-417.7547 688.3946,-397.1595 711.5454,-385.9847"/>
</g>
<!-- rel&#45;&#45;= -->
<g id="edge52" class="edge">
<title>rel&#45;&#45;=</title>
<path fill="none" stroke="#000000" d="M650.3813,-435.0816C667.7505,-421.4889 695.6735,-401.7052 715.034,-389.3577"/>
</g>
<!-- rel&#45;&#45;= -->
<g id="edge53" class="edge">
<title>rel&#45;&#45;=</title>
<path fill="none" stroke="#000000" d="M656.1392,-438.5914C675.4047,-426.2991 703.1025,-406.6797 720.4646,-393.1121"/>
</g>
<!-- rel&#45;&#45;= -->
<g id="edge54" class="edge">
<title>rel&#45;&#45;=</title>
<path fill="none" stroke="#000000" d="M659.5391,-442.0196C682.6013,-430.8892 712.797,-410.4067 729.0432,-395.6017"/>
</g>
<!-- rel&#45;&#45;if_stmt -->
<g id="edge55" class="edge">
<title>rel&#45;&#45;if_stmt</title>
<path fill="none" stroke="#000000" d="M620.3931,-434.5784C598.3084,-409.6483 559.0467,-358.0136 559.0467,-306 559.0467,-306 559.0467,-306 559.0467,-162 559.0467,-109.646 589.7954,-98.3298 635.0467,-72 710.4661,-28.1167 743.6959,-58.3332 828.0467,-36 834.419,-34.3128 841.1338,-32.2275 847.5437,-30.0812"/>
</g>
<!-- rel&#45;&#45;while_stmt -->
<g id="edge56" class="edge">
<title>rel&#45;&#45;while_stmt</title>
<path fill="none" stroke="#000000" d="M628.86,-432.3192C609.9071,-374.7627 558.4308,-189.6975 635.0467,-72 650.4631,-48.3173 678.8934,-34.9431 704.4325,-27.4308"/>
</g>
<!-- &lt;&#45;&#45;rel -->
<g id="edge62" class="edge">
<title>&lt;&#45;&#45;rel</title>
<path fill="none" stroke="#000000" d="M558.1139,-506.3771C573.369,-493.0595 597.3757,-474.1945 614.6578,-462.0271"/>
</g>
<!-- &lt;&#45;&#45;rel -->
<g id="edge63" class="edge">
<title>&lt;&#45;&#45;rel</title>
<path fill="none" stroke="#000000" d="M564.7006,-509.7862C581.9961,-497.5894 605.8954,-478.7993 621.0683,-465.5454"/>
</g>
<!-- term -->
<g id="node10" class="node">
<title>term</title>
<ellipse fill="none" stroke="#000000" cx="635.0467" cy="-738" rx="33.2948" ry="18"/>
<text text-anchor="middle" x="635.0467" y="-734.3" font-family="Times,serif" font-size="14.00" fill="#000000">term</text>
</g>
<!-- term&#45;&#45;add -->
<g id="edge23" class="edge">
<title>term&#45;&#45;add</title>
<path fill="none" stroke="#000000" d="M605.0017,-729.8453C562.8588,-703.7858 564.0971,-622.8972 608.7165,-600.0598"/>
</g>
<!-- term&#45;&#45;add -->
<g id="edge24" class="edge">
<title>term&#45;&#45;add</title>
<path fill="none" stroke="#000000" d="M608.1456,-726.7006C580.1936,-698.9863 581.0385,-628.0768 610.6803,-602.9738"/>
</g>
<!-- term&#45;&#45;add -->
<g id="edge25" class="edge">
<title>term&#45;&#45;add</title>
<path fill="none" stroke="#000000" d="M613.9906,-723.9305C596.7728,-695.9056 597.0705,-633.5066 614.8837,-606.6705"/>
</g>
<!-- term&#45;&#45;add -->
<g id="edge26" class="edge">
<title>term&#45;&#45;add</title>
<path fill="none" stroke="#000000" d="M621.5648,-721.4814C612.4716,-693.5565 612.5412,-637.3796 621.7736,-609.8872"/>
</g>
<!-- term&#45;&#45;add -->
<g id="edge27" class="edge">
<title>term&#45;&#45;add</title>
<path fill="none" stroke="#000000" d="M630.4029,-720.0535C627.6023,-692.4592 627.5947,-639.9026 630.3801,-612.1727"/>
</g>
<!-- term&#45;&#45;add -->
<g id="edge28" class="edge">
<title>term&#45;&#45;add</title>
<path fill="none" stroke="#000000" d="M639.6905,-720.0535C642.4911,-692.4592 642.4988,-639.9026 639.7134,-612.1727"/>
</g>
<!-- term&#45;&#45;add -->
<g id="edge29" class="edge">
<title>term&#45;&#45;add</title>
<path fill="none" stroke="#000000" d="M648.5286,-721.4814C657.6218,-693.5565 657.5522,-637.3796 648.3198,-609.8872"/>
</g>
<!-- term&#45;&#45;add -->
<g id="edge30" class="edge">
<title>term&#45;&#45;add</title>
<path fill="none" stroke="#000000" d="M656.1029,-723.9305C673.3207,-695.9056 673.0229,-633.5066 655.2097,-606.6705"/>
</g>
<!-- term&#45;&#45;add -->
<g id="edge31" class="edge">
<title>term&#45;&#45;add</title>
<path fill="none" stroke="#000000" d="M661.9478,-726.7006C689.8998,-698.9863 689.0549,-628.0768 659.4131,-602.9738"/>
</g>
<!-- term&#45;&#45;add -->
<g id="edge32" class="edge">
<title>term&#45;&#45;add</title>
<path fill="none" stroke="#000000" d="M665.0917,-729.8453C707.2346,-703.7858 705.9964,-622.8972 661.3769,-600.0598"/>
</g>
<!-- term&#45;&#45;&lt; -->
<g id="edge33" class="edge">
<title>term&#45;&#45;&lt;</title>
<path fill="none" stroke="#000000" d="M623.8761,-720.6889C603.113,-680.445 561.1582,-580.9108 547.6881,-539.9997"/>
</g>
<!-- term&#45;&#45;&lt; -->
<g id="edge34" class="edge">
<title>term&#45;&#45;&lt;</title>
<path fill="none" stroke="#000000" d="M631.3905,-719.9555C617.8299,-678.7898 575.5072,-578.436 554.8742,-538.6477"/>
</g>
<!-- + -->
<g id="node11" class="node">
<title>+</title>
<ellipse fill="none" stroke="#000000" cx="771.0467" cy="-666" rx="27" ry="18"/>
<text text-anchor="middle" x="771.0467" y="-662.3" font-family="Times,serif" font-size="14.00" fill="#000000">+</text>
</g>
<!-- term&#45;&#45;+ -->
<g id="edge35" class="edge">
<title>term&#45;&#45;+</title>
<path fill="none" stroke="#000000" d="M659.0477,-725.2936C684.6696,-711.729 724.8967,-690.4323 749.5253,-677.3937"/>
</g>
<!-- +&#45;&#45;add -->
<g id="edge72" class="edge">
<title>+&#45;&#45;add</title>
<path fill="none" stroke="#000000" d="M749.7967,-654.75C724.5457,-641.3818 682.6252,-619.1886 657.0486,-605.6481"/>
</g>
<!-- factor -->
<g id="node12" class="node">
<title>factor</title>
<ellipse fill="none" stroke="#000000" cx="635.0467" cy="-810" rx="38.1938" ry="18"/>
<text text-anchor="middle" x="635.0467" y="-806.3" font-family="Times,serif" font-size="14.00" fill="#000000">factor</text>
</g>
<!-- factor&#45;&#45;term -->
<g id="edge36" class="edge">
<title>factor&#45;&#45;term</title>
<path fill="none" stroke="#000000" d="M597.2671,-806.4295C538.0738,-793.8309 539.6825,-751.623 602.0931,-740.6338"/>
</g>
<!-- factor&#45;&#45;term -->
<g id="edge37" class="edge">
<title>factor&#45;&#45;term</title>
<path fill="none" stroke="#000000" d="M598.0173,-804.8219C555.9597,-791.086 557.4402,-753.9483 602.4588,-741.8599"/>
</g>
<!-- factor&#45;&#45;term -->
<g id="edge38" class="edge">
<title>factor&#45;&#45;term</title>
<path fill="none" stroke="#000000" d="M600.0838,-802.2947C573.6025,-787.8563 574.7485,-757.0142 603.5219,-743.9956"/>
</g>
<!-- factor&#45;&#45;term -->
<g id="edge39" class="edge">
<title>factor&#45;&#45;term</title>
<path fill="none" stroke="#000000" d="M604.6717,-798.75C590.5916,-784.6699 591.1966,-760.7998 606.4867,-747.561"/>
</g>
<!-- factor&#45;&#45;term -->
<g id="edge40" class="edge">
<title>factor&#45;&#45;term</title>
<path fill="none" stroke="#000000" d="M612.6758,-795.0816C606.3358,-782.3951 606.5082,-764.3155 613.1931,-751.9223"/>
</g>
<!-- factor&#45;&#45;term -->
<g id="edge41" class="edge">
<title>factor&#45;&#45;term</title>
<path fill="none" stroke="#000000" d="M623.2902,-792.5708C620.9545,-781.2506 620.9656,-766.5568 623.3236,-755.2687"/>
</g>
<!-- factor&#45;&#45;term -->
<g id="edge42" class="edge">
<title>factor&#45;&#45;term</title>
<path fill="none" stroke="#000000" d="M635.0467,-791.8314C635.0467,-781 635.0467,-767.2876 635.0467,-756.4133"/>
</g>
<!-- factor&#45;&#45;term -->
<g id="edge43" class="edge">
<title>factor&#45;&#45;term</title>
<path fill="none" stroke="#000000" d="M646.8032,-792.5708C649.1389,-781.2506 649.1278,-766.5568 646.7699,-755.2687"/>
</g>
<!-- factor&#45;&#45;term -->
<g id="edge44" class="edge">
<title>factor&#45;&#45;term</title>
<path fill="none" stroke="#000000" d="M657.4176,-795.0816C663.7576,-782.3951 663.5852,-764.3155 656.9004,-751.9223"/>
</g>
<!-- factor&#45;&#45;term -->
<g id="edge45" class="edge">
<title>factor&#45;&#45;term</title>
<path fill="none" stroke="#000000" d="M665.4217,-798.75C679.5018,-784.6699 678.8968,-760.7998 663.6067,-747.561"/>
</g>
<!-- factor&#45;&#45;term -->
<g id="edge46" class="edge">
<title>factor&#45;&#45;term</title>
<path fill="none" stroke="#000000" d="M670.0096,-802.2947C696.4909,-787.8563 695.3449,-757.0142 666.5715,-743.9956"/>
</g>
<!-- factor&#45;&#45;term -->
<g id="edge47" class="edge">
<title>factor&#45;&#45;term</title>
<path fill="none" stroke="#000000" d="M672.0761,-804.8219C714.1337,-791.086 712.6532,-753.9483 667.6346,-741.8599"/>
</g>
<!-- factor&#45;&#45;term -->
<g id="edge48" class="edge">
<title>factor&#45;&#45;term</title>
<path fill="none" stroke="#000000" d="M672.8264,-806.4295C732.0196,-793.8309 730.4109,-751.623 668.0003,-740.6338"/>
</g>
<!-- factor&#45;&#45;+ -->
<g id="edge49" class="edge">
<title>factor&#45;&#45;+</title>
<path fill="none" stroke="#000000" d="M650.6476,-793.4814C677.1607,-765.4088 730.6393,-708.7843 756.452,-681.4532"/>
</g>
<!-- %101 -->
<g id="node13" class="node">
<title>%101</title>
<ellipse fill="none" stroke="#000000" cx="37.0467" cy="-882" rx="37.0935" ry="18"/>
<text text-anchor="middle" x="37.0467" y="-878.3" font-family="Times,serif" font-size="14.00" fill="#000000">%101</text>
</g>
<!-- %101&#45;&#45;factor -->
<g id="edge50" class="edge">
<title>%101&#45;&#45;factor</title>
<path fill="none" stroke="#000000" d="M64.8717,-869.7011C70.7766,-867.4927 77.0422,-865.4392 83.0467,-864 181.1331,-840.4897 488.3607,-819.2947 596.7346,-812.3706"/>
</g>
<!-- if_stmt&#45;&#45;block -->
<g id="edge61" class="edge">
<title>if_stmt&#45;&#45;block</title>
<path fill="none" stroke="#000000" d="M901.7335,-33.9914C923.8492,-52.2911 952.6041,-82.962 935.0467,-108 921.4612,-127.3738 858.8702,-145.0905 819.2576,-154.6312"/>
</g>
<!-- while_stmt&#45;&#45;block -->
<g id="edge68" class="edge">
<title>while_stmt&#45;&#45;block</title>
<path fill="none" stroke="#000000" d="M760.7065,-36.1727C766.291,-63.9026 776.8753,-116.4592 782.4325,-144.0535"/>
</g>
<!-- %119 -->
<g id="node16" class="node">
<title>%119</title>
<ellipse fill="none" stroke="#000000" cx="129.0467" cy="-882" rx="37.0935" ry="18"/>
<text text-anchor="middle" x="129.0467" y="-878.3" font-family="Times,serif" font-size="14.00" fill="#000000">%119</text>
</g>
<!-- %119&#45;&#45;factor -->
<g id="edge58" class="edge">
<title>%119&#45;&#45;factor</title>
<path fill="none" stroke="#000000" d="M156.8937,-869.791C162.797,-867.5761 169.0564,-865.4972 175.0467,-864 328.1409,-825.7357 516.8425,-814.4037 596.588,-811.1984"/>
</g>
<!-- %123 -->
<g id="node17" class="node">
<title>%123</title>
<ellipse fill="none" stroke="#000000" cx="221.0467" cy="-882" rx="37.0935" ry="18"/>
<text text-anchor="middle" x="221.0467" y="-878.3" font-family="Times,serif" font-size="14.00" fill="#000000">%123</text>
</g>
<!-- %123&#45;&#45;factor -->
<g id="edge59" class="edge">
<title>%123&#45;&#45;factor</title>
<path fill="none" stroke="#000000" d="M248.9281,-869.9246C254.829,-867.7 261.0787,-865.5834 267.0467,-864 385.1645,-832.6611 529.7561,-818.1462 597.1279,-812.7074"/>
</g>
<!-- %127 -->
<g id="node18" class="node">
<title>%127</title>
<ellipse fill="none" stroke="#000000" cx="313.0467" cy="-882" rx="37.0935" ry="18"/>
<text text-anchor="middle" x="313.0467" y="-878.3" font-family="Times,serif" font-size="14.00" fill="#000000">%127</text>
</g>
<!-- %127&#45;&#45;factor -->
<g id="edge60" class="edge">
<title>%127&#45;&#45;factor</title>
<path fill="none" stroke="#000000" d="M340.989,-870.1436C346.8854,-867.9032 353.118,-865.7248 359.0467,-864 442.9649,-839.5871 544.467,-822.9131 597.9349,-815.0913"/>
</g>
<!-- %137 -->
<g id="node19" class="node">
<title>%137</title>
<ellipse fill="none" stroke="#000000" cx="405.0467" cy="-882" rx="37.0935" ry="18"/>
<text text-anchor="middle" x="405.0467" y="-878.3" font-family="Times,serif" font-size="14.00" fill="#000000">%137</text>
</g>
<!-- %137&#45;&#45;factor -->
<g id="edge64" class="edge">
<title>%137&#45;&#45;factor</title>
<path fill="none" stroke="#000000" d="M433.6133,-870.3751C439.3527,-868.1661 445.3661,-865.9408 451.0467,-864 503.0278,-846.2402 564.4394,-828.9411 601.531,-818.8867"/>
</g>
<!-- %141 -->
<g id="node20" class="node">
<title>%141</title>
<ellipse fill="none" stroke="#000000" cx="497.0467" cy="-882" rx="37.0935" ry="18"/>
<text text-anchor="middle" x="497.0467" y="-878.3" font-family="Times,serif" font-size="14.00" fill="#000000">%141</text>
</g>
<!-- %141&#45;&#45;factor -->
<g id="edge65" class="edge">
<title>%141&#45;&#45;factor</title>
<path fill="none" stroke="#000000" d="M522.358,-868.7941C546.9464,-855.9654 584.1089,-836.5762 608.9582,-823.6114"/>
</g>
<!-- %151 -->
<g id="node21" class="node">
<title>%151</title>
<ellipse fill="none" stroke="#000000" cx="589.0467" cy="-882" rx="37.0935" ry="18"/>
<text text-anchor="middle" x="589.0467" y="-878.3" font-family="Times,serif" font-size="14.00" fill="#000000">%151</text>
</g>
<!-- %151&#45;&#45;factor -->
<g id="edge69" class="edge">
<title>%151&#45;&#45;factor</title>
<path fill="none" stroke="#000000" d="M600.182,-864.5708C607.4144,-853.2506 616.8021,-838.5568 624.0139,-827.2687"/>
</g>
<!-- %155 -->
<g id="node22" class="node">
<title>%155</title>
<ellipse fill="none" stroke="#000000" cx="681.0467" cy="-882" rx="37.0935" ry="18"/>
<text text-anchor="middle" x="681.0467" y="-878.3" font-family="Times,serif" font-size="14.00" fill="#000000">%155</text>
</g>
<!-- %155&#45;&#45;factor -->
<g id="edge70" class="edge">
<title>%155&#45;&#45;factor</title>
<path fill="none" stroke="#000000" d="M669.9114,-864.5708C662.679,-853.2506 653.2913,-838.5568 646.0795,-827.2687"/>
</g>
<!-- %159 -->
<g id="node23" class="node">
<title>%159</title>
<ellipse fill="none" stroke="#000000" cx="773.0467" cy="-882" rx="37.0935" ry="18"/>
<text text-anchor="middle" x="773.0467" y="-878.3" font-family="Times,serif" font-size="14.00" fill="#000000">%159</text>
</g>
<!-- %159&#45;&#45;factor -->
<g id="edge71" class="edge">
<title>%159&#45;&#45;factor</title>
<path fill="none" stroke="#000000" d="M747.7354,-868.7941C723.147,-855.9654 685.9845,-836.5762 661.1352,-823.6114"/>
</g>
<!-- %165 -->
<g id="node24" class="node">
<title>%165</title>
<ellipse fill="none" stroke="#000000" cx="865.0467" cy="-882" rx="37.0935" ry="18"/>
<text text-anchor="middle" x="865.0467" y="-878.3" font-family="Times,serif" font-size="14.00" fill="#000000">%165</text>
</g>
<!-- %165&#45;&#45;factor -->
<g id="edge73" class="edge">
<title>%165&#45;&#45;factor</title>
<path fill="none" stroke="#000000" d="M836.4801,-870.3751C830.7407,-868.1661 824.7273,-865.9408 819.0467,-864 767.0656,-846.2402 705.654,-828.9411 668.5624,-818.8867"/>
</g>
<!-- %169 -->
<g id="node25" class="node">
<title>%169</title>
<ellipse fill="none" stroke="#000000" cx="957.0467" cy="-882" rx="37.0935" ry="18"/>
<text text-anchor="middle" x="957.0467" y="-878.3" font-family="Times,serif" font-size="14.00" fill="#000000">%169</text>
</g>
<!-- %169&#45;&#45;factor -->
<g id="edge74" class="edge">
<title>%169&#45;&#45;factor</title>
<path fill="none" stroke="#000000" d="M929.1044,-870.1436C923.208,-867.9032 916.9755,-865.7248 911.0467,-864 827.1286,-839.5871 725.6264,-822.9131 672.1585,-815.0913"/>
</g>
<!-- %175 -->
<g id="node26" class="node">
<title>%175</title>
<ellipse fill="none" stroke="#000000" cx="1049.0467" cy="-882" rx="37.0935" ry="18"/>
<text text-anchor="middle" x="1049.0467" y="-878.3" font-family="Times,serif" font-size="14.00" fill="#000000">%175</text>
</g>
<!-- %175&#45;&#45;factor -->
<g id="edge76" class="edge">
<title>%175&#45;&#45;factor</title>
<path fill="none" stroke="#000000" d="M1021.1653,-869.9246C1015.2645,-867.7 1009.0148,-865.5834 1003.0467,-864 884.9289,-832.6611 740.3373,-818.1462 672.9655,-812.7074"/>
</g>
<!-- %179 -->
<g id="node27" class="node">
<title>%179</title>
<ellipse fill="none" stroke="#000000" cx="1141.0467" cy="-882" rx="37.0935" ry="18"/>
<text text-anchor="middle" x="1141.0467" y="-878.3" font-family="Times,serif" font-size="14.00" fill="#000000">%179</text>
</g>
<!-- %179&#45;&#45;factor -->
<g id="edge77" class="edge">
<title>%179&#45;&#45;factor</title>
<path fill="none" stroke="#000000" d="M1113.1997,-869.791C1107.2964,-867.5761 1101.037,-865.4972 1095.0467,-864 941.9525,-825.7357 753.251,-814.4037 673.5054,-811.1984"/>
</g>
<!-- %183 -->
<g id="node28" class="node">
<title>%183</title>
<ellipse fill="none" stroke="#000000" cx="1233.0467" cy="-882" rx="37.0935" ry="18"/>
<text text-anchor="middle" x="1233.0467" y="-878.3" font-family="Times,serif" font-size="14.00" fill="#000000">%183</text>
</g>
<!-- %183&#45;&#45;factor -->
<g id="edge78" class="edge">
<title>%183&#45;&#45;factor</title>
<path fill="none" stroke="#000000" d="M1205.2217,-869.7011C1199.3168,-867.4927 1193.0512,-865.4392 1187.0467,-864 1088.9603,-840.4897 781.7327,-819.2947 673.3589,-812.3706"/>
</g>
</g>
</svg>
